<?xml version="1.0" encoding="UTF-8"?>
<svg width="24px" height="24px" viewBox="0 0 24 24" version="1.1" xmlns="http://www.w3.org/2000/svg" xmlns:xlink="http://www.w3.org/1999/xlink">
    <!-- Generator: Sketch 52.6 (67491) - http://www.bohemiancoding.com/sketch -->
    <title>arrow</title>
    <desc>Created with Sketch.</desc>
    <g id="arrow" stroke="none" stroke-width="1" fill="none" fill-rule="evenodd">
        <path d="M18.5857864,13 L3,13 C2.44771525,13 2,12.5522847 2,12 C2,11.4477153 2.44771525,11 3,11 L18.5857864,11 L14.636039,7.05025253 C14.2455147,6.65972824 14.2455147,6.02656326 14.636039,5.63603897 C15.0265633,5.24551468 15.6597282,5.24551468 16.0502525,5.63603897 L21.7071068,11.2928932 C21.8880712,11.4738576 22,11.7238576 22,12 C22,12.2761424 21.8880712,12.5261424 21.7071068,12.7071068 L16.0502525,18.363961 C15.6597282,18.7544853 15.0265633,18.7544853 14.636039,18.363961 C14.2455147,17.9734367 14.2455147,17.3402718 14.636039,16.9497475 L18.5857864,13 Z" id="Path" fill="#F0544F" fill-rule="nonzero"></path>
    </g>
</svg>