<?xml version="1.0" encoding="UTF-8"?>
<svg width="707px" height="414px" viewBox="0 0 707 414" version="1.1" xmlns="http://www.w3.org/2000/svg" xmlns:xlink="http://www.w3.org/1999/xlink">
    <!-- Generator: Sketch 53 (72520) - https://sketchapp.com -->
    <title>Artboard</title>
    <desc>Created with Sketch.</desc>
    <g id="Page-1" stroke="none" stroke-width="1" fill="none" fill-rule="evenodd">
        <g id="Artboard" fill-rule="nonzero">
            <path d="M281.524204,244.297038 C345.527424,165.919756 390.648314,131.149107 464.75538,148.552233 C554.894659,169.720324 578.106483,51 641.902767,51 C684.433622,51 712.1327,172.400075 725,415.200224 C269.816655,436.524418 52.2386743,414.12416 72.2660575,347.999448 C102.307132,248.812381 230.836612,306.368223 281.524204,244.297038 Z" id="Rectangle" fill="#FBD0CF"></path>
            <path d="M371.022074,280.292105 C422.103885,217.730382 458.11546,189.976017 517.261284,203.867408 C589.202627,220.764042 607.728289,126 658.644941,126 C692.589376,126 714.707729,222.940884 725,416.822653 C361.68948,433.768228 188.026279,415.850231 204.010397,363.068662 C227.986573,283.896309 330.56764,329.838099 371.022074,280.292105 Z" id="Rectangle-Copy-2" fill="#F0544F"></path>
        </g>
    </g>
</svg>